<mxfile host="app.diagrams.net" agent="Mozilla/5.0 (Macintosh; Intel Mac OS X 10_15_7) AppleWebKit/537.36 (KHTML, like Gecko) Chrome/131.0.0.0 Safari/537.36" version="25.0.3">
  <diagram name="第 1 页" id="Cx-hPU9XUAgWoO0Vhxke">
    <mxGraphModel dx="2346" dy="790" grid="1" gridSize="10" guides="1" tooltips="1" connect="1" arrows="1" fold="1" page="1" pageScale="1" pageWidth="827" pageHeight="1169" math="0" shadow="0">
      <root>
        <mxCell id="0" />
        <mxCell id="1" parent="0" />
        <mxCell id="ajoZCbaoKOKK31HCz9xZ-37" value="" style="rounded=1;whiteSpace=wrap;html=1;fillColor=none;dashed=1;" vertex="1" parent="1">
          <mxGeometry x="30" y="345" width="210" height="265" as="geometry" />
        </mxCell>
        <mxCell id="ajoZCbaoKOKK31HCz9xZ-1" value="" style="rounded=1;whiteSpace=wrap;html=1;fillColor=none;dashed=1;" vertex="1" parent="1">
          <mxGeometry x="-460" y="290" width="380" height="390" as="geometry" />
        </mxCell>
        <mxCell id="ajoZCbaoKOKK31HCz9xZ-3" value="" style="rounded=1;whiteSpace=wrap;html=1;fillColor=none;dashed=1;" vertex="1" parent="1">
          <mxGeometry x="330" y="290" width="380" height="390" as="geometry" />
        </mxCell>
        <mxCell id="ajoZCbaoKOKK31HCz9xZ-4" value="Yarn" style="text;html=1;align=center;verticalAlign=middle;resizable=0;points=[];autosize=1;strokeColor=none;fillColor=none;" vertex="1" parent="1">
          <mxGeometry x="-295" y="680" width="50" height="30" as="geometry" />
        </mxCell>
        <mxCell id="ajoZCbaoKOKK31HCz9xZ-5" value="Kubernetes" style="text;html=1;align=center;verticalAlign=middle;resizable=0;points=[];autosize=1;strokeColor=none;fillColor=none;" vertex="1" parent="1">
          <mxGeometry x="480" y="680" width="80" height="30" as="geometry" />
        </mxCell>
        <mxCell id="ajoZCbaoKOKK31HCz9xZ-13" style="rounded=0;orthogonalLoop=1;jettySize=auto;html=1;exitX=1;exitY=0;exitDx=0;exitDy=0;entryX=0;entryY=0.5;entryDx=0;entryDy=0;" edge="1" parent="1" source="ajoZCbaoKOKK31HCz9xZ-6" target="ajoZCbaoKOKK31HCz9xZ-7">
          <mxGeometry relative="1" as="geometry" />
        </mxCell>
        <mxCell id="ajoZCbaoKOKK31HCz9xZ-15" style="rounded=0;orthogonalLoop=1;jettySize=auto;html=1;exitX=1;exitY=1;exitDx=0;exitDy=0;entryX=0;entryY=0.5;entryDx=0;entryDy=0;" edge="1" parent="1" source="ajoZCbaoKOKK31HCz9xZ-6" target="ajoZCbaoKOKK31HCz9xZ-9">
          <mxGeometry relative="1" as="geometry" />
        </mxCell>
        <mxCell id="ajoZCbaoKOKK31HCz9xZ-6" value="Driver" style="ellipse;whiteSpace=wrap;html=1;" vertex="1" parent="1">
          <mxGeometry x="-420" y="460" width="120" height="50" as="geometry" />
        </mxCell>
        <mxCell id="ajoZCbaoKOKK31HCz9xZ-28" style="rounded=0;orthogonalLoop=1;jettySize=auto;html=1;exitX=1;exitY=0.5;exitDx=0;exitDy=0;entryX=0;entryY=0;entryDx=0;entryDy=0;" edge="1" parent="1" source="ajoZCbaoKOKK31HCz9xZ-7" target="ajoZCbaoKOKK31HCz9xZ-36">
          <mxGeometry relative="1" as="geometry" />
        </mxCell>
        <mxCell id="ajoZCbaoKOKK31HCz9xZ-7" value="Executor" style="ellipse;whiteSpace=wrap;html=1;" vertex="1" parent="1">
          <mxGeometry x="-240" y="390" width="120" height="50" as="geometry" />
        </mxCell>
        <mxCell id="ajoZCbaoKOKK31HCz9xZ-34" style="rounded=0;orthogonalLoop=1;jettySize=auto;html=1;exitX=1;exitY=0.5;exitDx=0;exitDy=0;entryX=0;entryY=1;entryDx=0;entryDy=0;" edge="1" parent="1" source="ajoZCbaoKOKK31HCz9xZ-9" target="ajoZCbaoKOKK31HCz9xZ-36">
          <mxGeometry relative="1" as="geometry" />
        </mxCell>
        <mxCell id="ajoZCbaoKOKK31HCz9xZ-9" value="Executor" style="ellipse;whiteSpace=wrap;html=1;" vertex="1" parent="1">
          <mxGeometry x="-240" y="530" width="120" height="50" as="geometry" />
        </mxCell>
        <mxCell id="ajoZCbaoKOKK31HCz9xZ-16" style="rounded=0;orthogonalLoop=1;jettySize=auto;html=1;exitX=1;exitY=0.5;exitDx=0;exitDy=0;entryX=0;entryY=0.5;entryDx=0;entryDy=0;" edge="1" parent="1" source="ajoZCbaoKOKK31HCz9xZ-19" target="ajoZCbaoKOKK31HCz9xZ-20">
          <mxGeometry relative="1" as="geometry" />
        </mxCell>
        <mxCell id="ajoZCbaoKOKK31HCz9xZ-17" style="rounded=0;orthogonalLoop=1;jettySize=auto;html=1;exitX=1;exitY=0.5;exitDx=0;exitDy=0;entryX=0;entryY=0.5;entryDx=0;entryDy=0;" edge="1" parent="1" source="ajoZCbaoKOKK31HCz9xZ-19" target="ajoZCbaoKOKK31HCz9xZ-21">
          <mxGeometry relative="1" as="geometry" />
        </mxCell>
        <mxCell id="ajoZCbaoKOKK31HCz9xZ-19" value="Head" style="ellipse;whiteSpace=wrap;html=1;" vertex="1" parent="1">
          <mxGeometry x="370" y="390" width="120" height="50" as="geometry" />
        </mxCell>
        <mxCell id="ajoZCbaoKOKK31HCz9xZ-20" value="Worker" style="ellipse;whiteSpace=wrap;html=1;" vertex="1" parent="1">
          <mxGeometry x="534" y="355" width="120" height="50" as="geometry" />
        </mxCell>
        <mxCell id="ajoZCbaoKOKK31HCz9xZ-21" value="Worker" style="ellipse;whiteSpace=wrap;html=1;" vertex="1" parent="1">
          <mxGeometry x="534" y="425" width="120" height="50" as="geometry" />
        </mxCell>
        <mxCell id="ajoZCbaoKOKK31HCz9xZ-27" style="edgeStyle=orthogonalEdgeStyle;rounded=0;orthogonalLoop=1;jettySize=auto;html=1;exitX=1;exitY=0.5;exitDx=0;exitDy=0;entryX=0;entryY=0.5;entryDx=0;entryDy=0;" edge="1" parent="1" source="ajoZCbaoKOKK31HCz9xZ-24" target="ajoZCbaoKOKK31HCz9xZ-6">
          <mxGeometry relative="1" as="geometry" />
        </mxCell>
        <mxCell id="ajoZCbaoKOKK31HCz9xZ-24" value="select df_func(t1.url)" style="ellipse;whiteSpace=wrap;html=1;" vertex="1" parent="1">
          <mxGeometry x="-780" y="460" width="190" height="50" as="geometry" />
        </mxCell>
        <mxCell id="ajoZCbaoKOKK31HCz9xZ-29" style="rounded=0;orthogonalLoop=1;jettySize=auto;html=1;exitX=1;exitY=0.5;exitDx=0;exitDy=0;entryX=0;entryY=0.5;entryDx=0;entryDy=0;" edge="1" parent="1" source="ajoZCbaoKOKK31HCz9xZ-31" target="ajoZCbaoKOKK31HCz9xZ-32">
          <mxGeometry relative="1" as="geometry" />
        </mxCell>
        <mxCell id="ajoZCbaoKOKK31HCz9xZ-30" style="rounded=0;orthogonalLoop=1;jettySize=auto;html=1;exitX=1;exitY=0.5;exitDx=0;exitDy=0;entryX=0;entryY=0.5;entryDx=0;entryDy=0;" edge="1" parent="1" source="ajoZCbaoKOKK31HCz9xZ-31" target="ajoZCbaoKOKK31HCz9xZ-33">
          <mxGeometry relative="1" as="geometry" />
        </mxCell>
        <mxCell id="ajoZCbaoKOKK31HCz9xZ-31" value="Head" style="ellipse;whiteSpace=wrap;html=1;" vertex="1" parent="1">
          <mxGeometry x="370" y="530" width="120" height="50" as="geometry" />
        </mxCell>
        <mxCell id="ajoZCbaoKOKK31HCz9xZ-32" value="Worker" style="ellipse;whiteSpace=wrap;html=1;" vertex="1" parent="1">
          <mxGeometry x="534" y="495" width="120" height="50" as="geometry" />
        </mxCell>
        <mxCell id="ajoZCbaoKOKK31HCz9xZ-33" value="Worker" style="ellipse;whiteSpace=wrap;html=1;" vertex="1" parent="1">
          <mxGeometry x="534" y="565" width="120" height="50" as="geometry" />
        </mxCell>
        <mxCell id="ajoZCbaoKOKK31HCz9xZ-38" style="rounded=0;orthogonalLoop=1;jettySize=auto;html=1;exitX=1;exitY=0.5;exitDx=0;exitDy=0;entryX=0;entryY=0.5;entryDx=0;entryDy=0;" edge="1" parent="1" source="ajoZCbaoKOKK31HCz9xZ-36" target="ajoZCbaoKOKK31HCz9xZ-19">
          <mxGeometry relative="1" as="geometry" />
        </mxCell>
        <mxCell id="ajoZCbaoKOKK31HCz9xZ-39" style="rounded=0;orthogonalLoop=1;jettySize=auto;html=1;exitX=1;exitY=0.5;exitDx=0;exitDy=0;entryX=0;entryY=0.5;entryDx=0;entryDy=0;" edge="1" parent="1" source="ajoZCbaoKOKK31HCz9xZ-36" target="ajoZCbaoKOKK31HCz9xZ-31">
          <mxGeometry relative="1" as="geometry" />
        </mxCell>
        <mxCell id="ajoZCbaoKOKK31HCz9xZ-36" value="Ray Service" style="ellipse;whiteSpace=wrap;html=1;" vertex="1" parent="1">
          <mxGeometry x="75" y="440" width="120" height="80" as="geometry" />
        </mxCell>
      </root>
    </mxGraphModel>
  </diagram>
</mxfile>
